# MagicaVoxel @ Ephtracy

# group
o 

# material
mtllib cat-0.mtl
usemtl palette

# normals
vn -1 0 0
vn 1 0 0
vn 0 0 1
vn 0 0 -1
vn 0 -1 0
vn 0 1 0

# texcoords
vt 0.310547 0.5
vt 0.978516 0.5
vt 0.990234 0.5

# verts
v -2.4 0.8 -1.7
v -2.4 0.8 -1.8
v -2.4 0.9 -1.7
v -2.4 0.9 -1.8
v -2.3 0.7 -1.7
v -2.3 0.7 -1.8
v -2.3 0.8 -1.7
v -2.3 0.8 -1.8
v -2.2 0.6 -1.7
v -2.2 0.6 -1.8
v -2.2 0.7 -1.7
v -2.2 0.7 -1.8
v -2.1 0.3 -1.7
v -2.1 0.3 -1.8
v -2.1 0.6 -1.7
v -2.1 0.6 -1.8
v -2 -0.4 -1.5
v -2 -0.4 -1.6
v -2 -0.4 -1.9
v -2 -0.4 -2
v -2 0 -1.6
v -2 0 -1.9
v -2 0.1 -1.5
v -2 0.1 -1.6
v -2 0.1 -1.9
v -2 0.1 -2
v -2 0.2 -1.5
v -2 0.2 -1.6
v -2 0.2 -1.9
v -2 0.2 -2
v -2 0.3 -1.6
v -2 0.3 -1.7
v -2 0.3 -1.8
v -2 0.3 -1.9
v -1.9 0.2 -1.5
v -1.9 0.2 -1.6
v -1.9 0.2 -1.9
v -1.9 0.2 -2
v -1.9 0.3 -1.5
v -1.9 0.3 -1.6
v -1.9 0.3 -1.7
v -1.9 0.3 -1.8
v -1.9 0.3 -1.9
v -1.9 0.3 -2
v -1.9 0.4 -1.6
v -1.9 0.4 -1.7
v -1.9 0.4 -1.8
v -1.9 0.4 -1.9
v -1.8 0.3 -1.5
v -1.8 0.3 -1.6
v -1.8 0.3 -1.9
v -1.8 0.3 -2
v -1.8 0.4 -1.5
v -1.8 0.4 -1.6
v -1.8 0.4 -1.9
v -1.8 0.4 -2
v -1.7 0 -1.5
v -1.7 0 -1.6
v -1.7 0 -1.9
v -1.7 0 -2
v -1.7 0.1 -1.5
v -1.7 0.1 -1.6
v -1.7 0.1 -1.9
v -1.7 0.1 -2
v -1.2 0.4 -1.6
v -1.2 0.4 -1.9
v -1.2 0.6 -1.5
v -1.2 0.6 -1.6
v -1.2 0.6 -1.9
v -1.2 0.6 -2
v -1.2 0.9 -1.5
v -1.2 0.9 -1.6
v -1.2 0.9 -1.9
v -1.2 0.9 -2
v -1.2 1.1 -1.5
v -1.2 1.1 -1.6
v -1.2 1.1 -1.9
v -1.2 1.1 -2
v -1.1 -0.4 -1.5
v -1.1 -0.4 -1.6
v -1.1 -0.4 -1.9
v -1.1 -0.4 -2
v -1.1 0 -1.6
v -1.1 0 -1.9
v -1.1 0.1 -1.5
v -1.1 0.1 -1.6
v -1.1 0.1 -1.9
v -1.1 0.1 -2
v -1.1 0.5 -1.5
v -1.1 0.5 -1.6
v -1.1 0.5 -1.9
v -1.1 0.5 -2
v -1.1 0.6 -1.5
v -1.1 0.6 -1.6
v -1.1 0.6 -1.9
v -1.1 0.6 -2
v -2.2 0.8 -1.7
v -2.2 0.8 -1.8
v -2.2 0.9 -1.7
v -2.2 0.9 -1.8
v -2.1 0.7 -1.7
v -2.1 0.7 -1.8
v -2.1 0.8 -1.7
v -2.1 0.8 -1.8
v -2 0.4 -1.7
v -2 0.4 -1.8
v -2 0.7 -1.7
v -2 0.7 -1.8
v -1.9 -0.3 -1.5
v -1.9 -0.3 -1.6
v -1.9 -0.3 -1.9
v -1.9 -0.3 -2
v -1.9 0 -1.6
v -1.9 0 -1.9
v -1.9 0.1 -1.5
v -1.9 0.1 -1.6
v -1.9 0.1 -1.9
v -1.9 0.1 -2
v -1.8 -0.4 -1.5
v -1.8 -0.4 -1.6
v -1.8 -0.4 -1.9
v -1.8 -0.4 -2
v -1.8 -0.3 -1.5
v -1.8 -0.3 -1.6
v -1.8 -0.3 -1.9
v -1.8 -0.3 -2
v -1.2 0 -1.5
v -1.2 0 -1.6
v -1.2 0 -1.9
v -1.2 0 -2
v -1.2 0.1 -1.5
v -1.2 0.1 -1.6
v -1.2 0.1 -1.9
v -1.2 0.1 -2
v -1.1 1 -1.5
v -1.1 1 -1.6
v -1.1 1 -1.9
v -1.1 1 -2
v -1.1 1.1 -1.5
v -1.1 1.1 -1.6
v -1.1 1.1 -1.9
v -1.1 1.1 -2
v -1 -0.3 -1.5
v -1 -0.3 -1.6
v -1 -0.3 -1.9
v -1 -0.3 -2
v -1 0 -1.6
v -1 0 -1.9
v -1 0.1 -1.5
v -1 0.1 -1.6
v -1 0.1 -1.9
v -1 0.1 -2
v -1 0.4 -1.5
v -1 0.4 -1.6
v -1 0.4 -1.9
v -1 0.4 -2
v -1 0.9 -1.5
v -1 0.9 -1.6
v -1 0.9 -1.9
v -1 0.9 -2
v -1 1 -1.5
v -1 1 -1.6
v -1 1 -1.9
v -1 1 -2
v -0.9 -0.4 -1.5
v -0.9 -0.4 -1.6
v -0.9 -0.4 -1.9
v -0.9 -0.4 -2
v -0.9 -0.3 -1.5
v -0.9 -0.3 -1.6
v -0.9 -0.3 -1.9
v -0.9 -0.3 -2
v -0.9 0.4 -1.6
v -0.9 0.4 -1.9
v -0.9 0.5 -1.6
v -0.9 0.5 -1.9
v -0.9 0.8 -1.5
v -0.9 0.8 -1.6
v -0.9 0.8 -1.9
v -0.9 0.8 -2
v -0.9 0.9 -1.5
v -0.9 0.9 -1.6
v -0.9 0.9 -1.9
v -0.9 0.9 -2
v -0.8 0.5 -1.5
v -0.8 0.5 -1.7
v -0.8 0.5 -1.8
v -0.8 0.5 -2
v -0.8 0.6 -1.6
v -0.8 0.6 -1.7
v -0.8 0.6 -1.8
v -0.8 0.6 -1.9
v -0.8 0.7 -1.6
v -0.8 0.7 -1.7
v -0.8 0.7 -1.8
v -0.8 0.7 -1.9
v -0.8 0.8 -1.5
v -0.8 0.8 -1.6
v -0.8 0.8 -1.7
v -0.8 0.8 -1.8
v -0.8 0.8 -1.9
v -0.8 0.8 -2
v -0.8 0.9 -1.6
v -0.8 0.9 -1.9
v -0.7 0.5 -1.7
v -0.7 0.5 -1.8
v -0.7 0.6 -1.6
v -0.7 0.6 -1.7
v -0.7 0.6 -1.8
v -0.7 0.6 -1.9
v -0.7 0.7 -1.6
v -0.7 0.7 -1.9
v -2 -0.4 -1.5
v -2 0.1 -1.5
v -2 0.2 -1.5
v -1.9 -0.3 -1.5
v -1.9 0.1 -1.5
v -1.9 0.2 -1.5
v -1.9 0.3 -1.5
v -1.8 -0.4 -1.5
v -1.8 -0.3 -1.5
v -1.8 0.3 -1.5
v -1.8 0.4 -1.5
v -1.7 0 -1.5
v -1.7 0.1 -1.5
v -1.2 0 -1.5
v -1.2 0.1 -1.5
v -1.2 0.6 -1.5
v -1.2 0.9 -1.5
v -1.2 1.1 -1.5
v -1.1 -0.4 -1.5
v -1.1 0.1 -1.5
v -1.1 0.5 -1.5
v -1.1 0.6 -1.5
v -1.1 1 -1.5
v -1.1 1.1 -1.5
v -1 -0.3 -1.5
v -1 0.1 -1.5
v -1 0.4 -1.5
v -1 0.9 -1.5
v -1 1 -1.5
v -0.9 -0.4 -1.5
v -0.9 -0.3 -1.5
v -0.9 0.8 -1.5
v -0.9 0.9 -1.5
v -0.8 0.5 -1.5
v -0.8 0.8 -1.5
v -2 0.2 -1.6
v -2 0.3 -1.6
v -1.9 0 -1.6
v -1.9 0.1 -1.6
v -1.9 0.2 -1.6
v -1.9 0.3 -1.6
v -1.9 0.4 -1.6
v -1.8 0.3 -1.6
v -1.8 0.4 -1.6
v -1.7 0 -1.6
v -1.7 0.1 -1.6
v -1.2 0 -1.6
v -1.2 0.1 -1.6
v -1.2 0.4 -1.6
v -1.2 0.6 -1.6
v -1.1 0 -1.6
v -1.1 0.1 -1.6
v -1.1 0.5 -1.6
v -1.1 0.6 -1.6
v -1 0.4 -1.6
v -0.9 0.4 -1.6
v -0.9 0.5 -1.6
v -0.9 0.8 -1.6
v -0.9 0.9 -1.6
v -0.8 0.6 -1.6
v -0.8 0.7 -1.6
v -0.8 0.8 -1.6
v -0.8 0.9 -1.6
v -0.7 0.6 -1.6
v -0.7 0.7 -1.6
v -2.4 0.8 -1.7
v -2.4 0.9 -1.7
v -2.3 0.7 -1.7
v -2.3 0.8 -1.7
v -2.2 0.6 -1.7
v -2.2 0.7 -1.7
v -2.2 0.8 -1.7
v -2.2 0.9 -1.7
v -2.1 0.3 -1.7
v -2.1 0.6 -1.7
v -2.1 0.7 -1.7
v -2.1 0.8 -1.7
v -2 0.3 -1.7
v -2 0.4 -1.7
v -2 0.7 -1.7
v -1.9 0.3 -1.7
v -1.9 0.4 -1.7
v -0.8 0.5 -1.7
v -0.8 0.6 -1.7
v -0.7 0.5 -1.7
v -0.7 0.6 -1.7
v -2 -0.4 -1.9
v -2 0 -1.9
v -1.9 -0.3 -1.9
v -1.9 0 -1.9
v -1.8 -0.4 -1.9
v -1.8 -0.3 -1.9
v -1.2 0.9 -1.9
v -1.2 1.1 -1.9
v -1.1 -0.4 -1.9
v -1.1 0 -1.9
v -1.1 1 -1.9
v -1.1 1.1 -1.9
v -1 -0.3 -1.9
v -1 0 -1.9
v -1 0.9 -1.9
v -1 1 -1.9
v -0.9 -0.4 -1.9
v -0.9 -0.3 -1.9
v -2 -0.4 -1.6
v -2 0 -1.6
v -1.9 -0.3 -1.6
v -1.9 0 -1.6
v -1.8 -0.4 -1.6
v -1.8 -0.3 -1.6
v -1.2 0.9 -1.6
v -1.2 1.1 -1.6
v -1.1 -0.4 -1.6
v -1.1 0 -1.6
v -1.1 1 -1.6
v -1.1 1.1 -1.6
v -1 -0.3 -1.6
v -1 0 -1.6
v -1 0.9 -1.6
v -1 1 -1.6
v -0.9 -0.4 -1.6
v -0.9 -0.3 -1.6
v -2.4 0.8 -1.8
v -2.4 0.9 -1.8
v -2.3 0.7 -1.8
v -2.3 0.8 -1.8
v -2.2 0.6 -1.8
v -2.2 0.7 -1.8
v -2.2 0.8 -1.8
v -2.2 0.9 -1.8
v -2.1 0.3 -1.8
v -2.1 0.6 -1.8
v -2.1 0.7 -1.8
v -2.1 0.8 -1.8
v -2 0.3 -1.8
v -2 0.4 -1.8
v -2 0.7 -1.8
v -1.9 0.3 -1.8
v -1.9 0.4 -1.8
v -0.8 0.5 -1.8
v -0.8 0.6 -1.8
v -0.7 0.5 -1.8
v -0.7 0.6 -1.8
v -2 0.2 -1.9
v -2 0.3 -1.9
v -1.9 0 -1.9
v -1.9 0.1 -1.9
v -1.9 0.2 -1.9
v -1.9 0.3 -1.9
v -1.9 0.4 -1.9
v -1.8 0.3 -1.9
v -1.8 0.4 -1.9
v -1.7 0 -1.9
v -1.7 0.1 -1.9
v -1.2 0 -1.9
v -1.2 0.1 -1.9
v -1.2 0.4 -1.9
v -1.2 0.6 -1.9
v -1.1 0 -1.9
v -1.1 0.1 -1.9
v -1.1 0.5 -1.9
v -1.1 0.6 -1.9
v -1 0.4 -1.9
v -0.9 0.4 -1.9
v -0.9 0.5 -1.9
v -0.9 0.8 -1.9
v -0.9 0.9 -1.9
v -0.8 0.6 -1.9
v -0.8 0.7 -1.9
v -0.8 0.8 -1.9
v -0.8 0.9 -1.9
v -0.7 0.6 -1.9
v -0.7 0.7 -1.9
v -2 -0.4 -2
v -2 0.1 -2
v -2 0.2 -2
v -1.9 -0.3 -2
v -1.9 0.1 -2
v -1.9 0.2 -2
v -1.9 0.3 -2
v -1.8 -0.4 -2
v -1.8 -0.3 -2
v -1.8 0.3 -2
v -1.8 0.4 -2
v -1.7 0 -2
v -1.7 0.1 -2
v -1.2 0 -2
v -1.2 0.1 -2
v -1.2 0.6 -2
v -1.2 0.9 -2
v -1.2 1.1 -2
v -1.1 -0.4 -2
v -1.1 0.1 -2
v -1.1 0.5 -2
v -1.1 0.6 -2
v -1.1 1 -2
v -1.1 1.1 -2
v -1 -0.3 -2
v -1 0.1 -2
v -1 0.4 -2
v -1 0.9 -2
v -1 1 -2
v -0.9 -0.4 -2
v -0.9 -0.3 -2
v -0.9 0.8 -2
v -0.9 0.9 -2
v -0.8 0.5 -2
v -0.8 0.8 -2
v -2 -0.4 -1.5
v -1.8 -0.4 -1.5
v -1.1 -0.4 -1.5
v -0.9 -0.4 -1.5
v -2 -0.4 -1.6
v -1.8 -0.4 -1.6
v -1.1 -0.4 -1.6
v -0.9 -0.4 -1.6
v -2 -0.4 -1.9
v -1.8 -0.4 -1.9
v -1.1 -0.4 -1.9
v -0.9 -0.4 -1.9
v -2 -0.4 -2
v -1.8 -0.4 -2
v -1.1 -0.4 -2
v -0.9 -0.4 -2
v -1.7 0 -1.5
v -1.2 0 -1.5
v -2 0 -1.6
v -1.9 0 -1.6
v -1.7 0 -1.6
v -1.2 0 -1.6
v -1.1 0 -1.6
v -1 0 -1.6
v -2 0 -1.9
v -1.9 0 -1.9
v -1.7 0 -1.9
v -1.2 0 -1.9
v -1.1 0 -1.9
v -1 0 -1.9
v -1.7 0 -2
v -1.2 0 -2
v -1.9 0.1 -1.5
v -1.7 0.1 -1.5
v -1.2 0.1 -1.5
v -1.1 0.1 -1.5
v -1.9 0.1 -1.6
v -1.7 0.1 -1.6
v -1.2 0.1 -1.6
v -1.1 0.1 -1.6
v -1.9 0.1 -1.9
v -1.7 0.1 -1.9
v -1.2 0.1 -1.9
v -1.1 0.1 -1.9
v -1.9 0.1 -2
v -1.7 0.1 -2
v -1.2 0.1 -2
v -1.1 0.1 -2
v -2.1 0.3 -1.7
v -2 0.3 -1.7
v -2.1 0.3 -1.8
v -2 0.3 -1.8
v -1 0.4 -1.6
v -0.9 0.4 -1.6
v -1 0.4 -1.9
v -0.9 0.4 -1.9
v -1.1 0.5 -1.5
v -0.8 0.5 -1.5
v -1.1 0.5 -1.6
v -0.9 0.5 -1.6
v -0.8 0.5 -1.7
v -0.7 0.5 -1.7
v -0.8 0.5 -1.8
v -0.7 0.5 -1.8
v -1.1 0.5 -1.9
v -0.9 0.5 -1.9
v -1.1 0.5 -2
v -0.8 0.5 -2
v -1.2 0.6 -1.5
v -1.1 0.6 -1.5
v -1.2 0.6 -1.6
v -1.1 0.6 -1.6
v -0.8 0.6 -1.6
v -0.7 0.6 -1.6
v -2.2 0.6 -1.7
v -2.1 0.6 -1.7
v -0.8 0.6 -1.7
v -0.7 0.6 -1.7
v -2.2 0.6 -1.8
v -2.1 0.6 -1.8
v -0.8 0.6 -1.8
v -0.7 0.6 -1.8
v -1.2 0.6 -1.9
v -1.1 0.6 -1.9
v -0.8 0.6 -1.9
v -0.7 0.6 -1.9
v -1.2 0.6 -2
v -1.1 0.6 -2
v -2.3 0.7 -1.7
v -2.2 0.7 -1.7
v -2.3 0.7 -1.8
v -2.2 0.7 -1.8
v -2.4 0.8 -1.7
v -2.3 0.8 -1.7
v -2.4 0.8 -1.8
v -2.3 0.8 -1.8
v -1.9 -0.3 -1.5
v -1.8 -0.3 -1.5
v -1 -0.3 -1.5
v -0.9 -0.3 -1.5
v -1.9 -0.3 -1.6
v -1.8 -0.3 -1.6
v -1 -0.3 -1.6
v -0.9 -0.3 -1.6
v -1.9 -0.3 -1.9
v -1.8 -0.3 -1.9
v -1 -0.3 -1.9
v -0.9 -0.3 -1.9
v -1.9 -0.3 -2
v -1.8 -0.3 -2
v -1 -0.3 -2
v -0.9 -0.3 -2
v -2 0.2 -1.5
v -1.9 0.2 -1.5
v -2 0.2 -1.6
v -1.9 0.2 -1.6
v -2 0.2 -1.9
v -1.9 0.2 -1.9
v -2 0.2 -2
v -1.9 0.2 -2
v -1.9 0.3 -1.5
v -1.8 0.3 -1.5
v -2 0.3 -1.6
v -1.9 0.3 -1.6
v -1.8 0.3 -1.6
v -2 0.3 -1.7
v -1.9 0.3 -1.7
v -2 0.3 -1.8
v -1.9 0.3 -1.8
v -2 0.3 -1.9
v -1.9 0.3 -1.9
v -1.8 0.3 -1.9
v -1.9 0.3 -2
v -1.8 0.3 -2
v -1.8 0.4 -1.5
v -1 0.4 -1.5
v -1.9 0.4 -1.6
v -1.8 0.4 -1.6
v -1.2 0.4 -1.6
v -1 0.4 -1.6
v -2 0.4 -1.7
v -1.9 0.4 -1.7
v -2 0.4 -1.8
v -1.9 0.4 -1.8
v -1.9 0.4 -1.9
v -1.8 0.4 -1.9
v -1.2 0.4 -1.9
v -1 0.4 -1.9
v -1.8 0.4 -2
v -1 0.4 -2
v -0.8 0.7 -1.6
v -0.7 0.7 -1.6
v -2.1 0.7 -1.7
v -2 0.7 -1.7
v -0.8 0.7 -1.7
v -2.1 0.7 -1.8
v -2 0.7 -1.8
v -0.8 0.7 -1.8
v -0.8 0.7 -1.9
v -0.7 0.7 -1.9
v -0.9 0.8 -1.5
v -0.8 0.8 -1.5
v -0.9 0.8 -1.6
v -0.8 0.8 -1.6
v -2.2 0.8 -1.7
v -2.1 0.8 -1.7
v -2.2 0.8 -1.8
v -2.1 0.8 -1.8
v -0.9 0.8 -1.9
v -0.8 0.8 -1.9
v -0.9 0.8 -2
v -0.8 0.8 -2
v -1 0.9 -1.5
v -0.9 0.9 -1.5
v -1.2 0.9 -1.6
v -1 0.9 -1.6
v -0.9 0.9 -1.6
v -0.8 0.9 -1.6
v -2.4 0.9 -1.7
v -2.2 0.9 -1.7
v -2.4 0.9 -1.8
v -2.2 0.9 -1.8
v -1.2 0.9 -1.9
v -1 0.9 -1.9
v -0.9 0.9 -1.9
v -0.8 0.9 -1.9
v -1 0.9 -2
v -0.9 0.9 -2
v -1.1 1 -1.5
v -1 1 -1.5
v -1.1 1 -1.6
v -1 1 -1.6
v -1.1 1 -1.9
v -1 1 -1.9
v -1.1 1 -2
v -1 1 -2
v -1.2 1.1 -1.5
v -1.1 1.1 -1.5
v -1.2 1.1 -1.6
v -1.1 1.1 -1.6
v -1.2 1.1 -1.9
v -1.1 1.1 -1.9
v -1.2 1.1 -2
v -1.1 1.1 -2

# faces
f 3/3/1 2/3/1 1/3/1
f 4/3/1 2/3/1 3/3/1
f 7/3/1 6/3/1 5/3/1
f 8/3/1 6/3/1 7/3/1
f 11/3/1 10/3/1 9/3/1
f 12/3/1 10/3/1 11/3/1
f 15/3/1 14/3/1 13/3/1
f 16/3/1 14/3/1 15/3/1
f 21/3/1 18/3/1 17/3/1
f 22/3/1 20/3/1 19/3/1
f 23/3/1 21/3/1 17/3/1
f 24/2/1 22/2/1 21/2/1
f 24/3/1 21/3/1 23/3/1
f 25/3/1 20/3/1 22/3/1
f 25/2/1 22/2/1 24/2/1
f 26/3/1 20/3/1 25/3/1
f 27/2/1 24/2/1 23/2/1
f 27/2/1 25/2/1 24/2/1
f 27/2/1 26/2/1 25/2/1
f 28/2/1 26/2/1 27/2/1
f 29/2/1 26/2/1 28/2/1
f 30/2/1 26/2/1 29/2/1
f 31/2/1 29/2/1 28/2/1
f 32/2/1 29/2/1 31/2/1
f 33/2/1 29/2/1 32/2/1
f 34/2/1 29/2/1 33/2/1
f 39/2/1 36/2/1 35/2/1
f 40/2/1 36/2/1 39/2/1
f 43/2/1 38/2/1 37/2/1
f 44/2/1 38/2/1 43/2/1
f 45/2/1 41/2/1 40/2/1
f 46/2/1 41/2/1 45/2/1
f 47/2/1 43/2/1 42/2/1
f 48/2/1 43/2/1 47/2/1
f 53/2/1 50/2/1 49/2/1
f 54/2/1 50/2/1 53/2/1
f 55/2/1 52/2/1 51/2/1
f 56/2/1 52/2/1 55/2/1
f 61/2/1 58/2/1 57/2/1
f 62/2/1 58/2/1 61/2/1
f 63/2/1 60/2/1 59/2/1
f 64/2/1 60/2/1 63/2/1
f 68/2/1 66/2/1 65/2/1
f 69/2/1 66/2/1 68/2/1
f 71/2/1 68/2/1 67/2/1
f 71/2/1 70/2/1 69/2/1
f 71/2/1 69/2/1 68/2/1
f 72/2/1 70/2/1 71/2/1
f 73/2/1 70/2/1 72/2/1
f 74/2/1 70/2/1 73/2/1
f 75/3/1 72/3/1 71/3/1
f 76/3/1 72/3/1 75/3/1
f 77/3/1 74/3/1 73/3/1
f 78/3/1 74/3/1 77/3/1
f 83/3/1 80/3/1 79/3/1
f 84/3/1 82/3/1 81/3/1
f 85/3/1 83/3/1 79/3/1
f 86/3/1 83/3/1 85/3/1
f 87/3/1 82/3/1 84/3/1
f 88/3/1 82/3/1 87/3/1
f 93/2/1 90/2/1 89/2/1
f 94/2/1 90/2/1 93/2/1
f 95/2/1 92/2/1 91/2/1
f 96/2/1 92/2/1 95/2/1
f 97/3/2 98/3/2 99/3/2
f 99/3/2 98/3/2 100/3/2
f 101/3/2 102/3/2 103/3/2
f 103/3/2 102/3/2 104/3/2
f 105/3/2 106/3/2 107/3/2
f 107/3/2 106/3/2 108/3/2
f 109/3/2 110/3/2 113/3/2
f 111/3/2 112/3/2 114/3/2
f 109/3/2 113/3/2 115/3/2
f 115/3/2 113/3/2 116/3/2
f 114/3/2 112/3/2 117/3/2
f 117/3/2 112/3/2 118/3/2
f 119/3/2 120/3/2 123/3/2
f 123/3/2 120/3/2 124/3/2
f 121/3/2 122/3/2 125/3/2
f 125/3/2 122/3/2 126/3/2
f 127/2/2 128/2/2 131/2/2
f 131/2/2 128/2/2 132/2/2
f 129/2/2 130/2/2 133/2/2
f 133/2/2 130/2/2 134/2/2
f 135/3/2 136/3/2 139/3/2
f 139/3/2 136/3/2 140/3/2
f 137/3/2 138/3/2 141/3/2
f 141/3/2 138/3/2 142/3/2
f 143/3/2 144/3/2 147/3/2
f 145/3/2 146/3/2 148/3/2
f 143/3/2 147/3/2 149/3/2
f 147/2/2 148/2/2 150/2/2
f 149/3/2 147/3/2 150/3/2
f 148/3/2 146/3/2 151/3/2
f 150/2/2 148/2/2 151/2/2
f 151/3/2 146/3/2 152/3/2
f 149/2/2 150/2/2 153/2/2
f 150/2/2 151/2/2 153/2/2
f 151/2/2 152/2/2 153/2/2
f 153/2/2 152/2/2 154/2/2
f 154/2/2 152/2/2 155/2/2
f 155/2/2 152/2/2 156/2/2
f 157/3/2 158/3/2 161/3/2
f 161/3/2 158/3/2 162/3/2
f 159/3/2 160/3/2 163/3/2
f 163/3/2 160/3/2 164/3/2
f 165/3/2 166/3/2 169/3/2
f 169/3/2 166/3/2 170/3/2
f 167/3/2 168/3/2 171/3/2
f 171/3/2 168/3/2 172/3/2
f 173/2/2 174/2/2 175/2/2
f 175/2/2 174/2/2 176/2/2
f 177/2/2 178/2/2 181/2/2
f 181/2/2 178/2/2 182/2/2
f 179/2/2 180/2/2 183/2/2
f 183/2/2 180/2/2 184/2/2
f 185/2/2 186/2/2 189/2/2
f 189/2/2 186/2/2 190/2/2
f 187/2/2 188/2/2 191/2/2
f 191/2/2 188/2/2 192/2/2
f 185/2/2 189/2/2 193/2/2
f 192/2/2 188/2/2 196/2/2
f 185/2/2 193/2/2 197/2/2
f 193/3/2 194/3/2 198/3/2
f 197/2/2 193/2/2 198/2/2
f 194/2/2 195/2/2 199/2/2
f 198/3/2 194/3/2 199/3/2
f 195/3/2 196/3/2 200/3/2
f 199/2/2 195/2/2 200/2/2
f 196/2/2 188/2/2 201/2/2
f 200/3/2 196/3/2 201/3/2
f 201/2/2 188/2/2 202/2/2
f 198/2/2 199/2/2 203/2/2
f 200/2/2 201/2/2 203/2/2
f 199/2/2 200/2/2 203/2/2
f 203/2/2 201/2/2 204/2/2
f 205/3/2 206/3/2 208/3/2
f 208/3/2 206/3/2 209/3/2
f 207/3/2 208/3/2 211/3/2
f 209/3/2 210/3/2 211/3/2
f 208/3/2 209/3/2 211/3/2
f 211/3/2 210/3/2 212/3/2
f 216/3/3 214/3/3 213/3/3
f 217/2/3 215/2/3 214/2/3
f 217/3/3 214/3/3 216/3/3
f 218/2/3 215/2/3 217/2/3
f 220/3/3 216/3/3 213/3/3
f 221/3/3 216/3/3 220/3/3
f 222/2/3 219/2/3 218/2/3
f 222/2/3 218/2/3 217/2/3
f 225/2/3 223/2/3 222/2/3
f 225/2/3 222/2/3 217/2/3
f 226/2/3 225/2/3 224/2/3
f 227/2/3 223/2/3 225/2/3
f 227/2/3 225/2/3 226/2/3
f 232/2/3 223/2/3 227/2/3
f 234/2/3 229/2/3 228/2/3
f 235/3/3 230/3/3 229/3/3
f 236/3/3 230/3/3 235/3/3
f 237/3/3 232/3/3 231/3/3
f 238/2/3 223/2/3 232/2/3
f 238/3/3 232/3/3 237/3/3
f 239/2/3 223/2/3 238/2/3
f 240/2/3 234/2/3 233/2/3
f 240/2/3 229/2/3 234/2/3
f 240/3/3 235/3/3 229/3/3
f 241/3/3 235/3/3 240/3/3
f 242/3/3 237/3/3 231/3/3
f 243/3/3 237/3/3 242/3/3
f 244/2/3 240/2/3 233/2/3
f 245/2/3 240/2/3 244/2/3
f 246/2/3 244/2/3 233/2/3
f 247/2/3 244/2/3 246/2/3
f 252/2/3 249/2/3 248/2/3
f 253/2/3 249/2/3 252/2/3
f 255/2/3 254/2/3 253/2/3
f 256/2/3 254/2/3 255/2/3
f 257/2/3 251/2/3 250/2/3
f 258/2/3 251/2/3 257/2/3
f 263/2/3 260/2/3 259/2/3
f 264/2/3 260/2/3 263/2/3
f 265/2/3 262/2/3 261/2/3
f 266/2/3 262/2/3 265/2/3
f 267/2/3 265/2/3 261/2/3
f 268/2/3 265/2/3 267/2/3
f 269/2/3 265/2/3 268/2/3
f 274/2/3 271/2/3 270/2/3
f 275/2/3 271/2/3 274/2/3
f 276/3/3 273/3/3 272/3/3
f 277/3/3 273/3/3 276/3/3
f 281/3/3 279/3/3 278/3/3
f 283/3/3 281/3/3 280/3/3
f 284/3/3 279/3/3 281/3/3
f 284/3/3 281/3/3 283/3/3
f 285/3/3 279/3/3 284/3/3
f 287/3/3 283/3/3 282/3/3
f 287/3/3 284/3/3 283/3/3
f 288/3/3 284/3/3 287/3/3
f 289/3/3 284/3/3 288/3/3
f 290/3/3 287/3/3 286/3/3
f 290/3/3 288/3/3 287/3/3
f 291/3/3 288/3/3 290/3/3
f 292/3/3 288/3/3 291/3/3
f 293/3/3 291/3/3 290/3/3
f 294/3/3 291/3/3 293/3/3
f 297/3/3 296/3/3 295/3/3
f 298/3/3 296/3/3 297/3/3
f 301/3/3 300/3/3 299/3/3
f 302/3/3 300/3/3 301/3/3
f 303/3/3 301/3/3 299/3/3
f 304/3/3 301/3/3 303/3/3
f 309/3/3 306/3/3 305/3/3
f 310/3/3 306/3/3 309/3/3
f 311/3/3 308/3/3 307/3/3
f 312/3/3 308/3/3 311/3/3
f 313/3/3 309/3/3 305/3/3
f 314/3/3 309/3/3 313/3/3
f 315/3/3 311/3/3 307/3/3
f 316/3/3 311/3/3 315/3/3
f 317/3/4 318/3/4 319/3/4
f 319/3/4 318/3/4 320/3/4
f 317/3/4 319/3/4 321/3/4
f 321/3/4 319/3/4 322/3/4
f 323/3/4 324/3/4 327/3/4
f 327/3/4 324/3/4 328/3/4
f 325/3/4 326/3/4 329/3/4
f 329/3/4 326/3/4 330/3/4
f 323/3/4 327/3/4 331/3/4
f 331/3/4 327/3/4 332/3/4
f 325/3/4 329/3/4 333/3/4
f 333/3/4 329/3/4 334/3/4
f 335/3/4 336/3/4 338/3/4
f 337/3/4 338/3/4 340/3/4
f 338/3/4 336/3/4 341/3/4
f 340/3/4 338/3/4 341/3/4
f 341/3/4 336/3/4 342/3/4
f 339/3/4 340/3/4 344/3/4
f 340/3/4 341/3/4 344/3/4
f 344/3/4 341/3/4 345/3/4
f 345/3/4 341/3/4 346/3/4
f 343/3/4 344/3/4 347/3/4
f 344/3/4 345/3/4 347/3/4
f 347/3/4 345/3/4 348/3/4
f 348/3/4 345/3/4 349/3/4
f 347/3/4 348/3/4 350/3/4
f 350/3/4 348/3/4 351/3/4
f 352/3/4 353/3/4 354/3/4
f 354/3/4 353/3/4 355/3/4
f 356/2/4 357/2/4 360/2/4
f 360/2/4 357/2/4 361/2/4
f 361/2/4 362/2/4 363/2/4
f 363/2/4 362/2/4 364/2/4
f 358/2/4 359/2/4 365/2/4
f 365/2/4 359/2/4 366/2/4
f 367/2/4 368/2/4 371/2/4
f 371/2/4 368/2/4 372/2/4
f 369/2/4 370/2/4 373/2/4
f 373/2/4 370/2/4 374/2/4
f 369/2/4 373/2/4 375/2/4
f 375/2/4 373/2/4 376/2/4
f 376/2/4 373/2/4 377/2/4
f 378/2/4 379/2/4 382/2/4
f 382/2/4 379/2/4 383/2/4
f 380/3/4 381/3/4 384/3/4
f 384/3/4 381/3/4 385/3/4
f 386/3/4 387/3/4 389/3/4
f 387/2/4 388/2/4 390/2/4
f 389/3/4 387/3/4 390/3/4
f 390/2/4 388/2/4 391/2/4
f 386/3/4 389/3/4 393/3/4
f 393/3/4 389/3/4 394/3/4
f 391/2/4 392/2/4 395/2/4
f 390/2/4 391/2/4 395/2/4
f 395/2/4 396/2/4 398/2/4
f 390/2/4 395/2/4 398/2/4
f 397/2/4 398/2/4 399/2/4
f 398/2/4 396/2/4 400/2/4
f 399/2/4 398/2/4 400/2/4
f 400/2/4 396/2/4 405/2/4
f 401/2/4 402/2/4 407/2/4
f 402/3/4 403/3/4 408/3/4
f 408/3/4 403/3/4 409/3/4
f 404/3/4 405/3/4 410/3/4
f 405/2/4 396/2/4 411/2/4
f 410/3/4 405/3/4 411/3/4
f 411/2/4 396/2/4 412/2/4
f 406/2/4 407/2/4 413/2/4
f 407/2/4 402/2/4 413/2/4
f 402/3/4 408/3/4 413/3/4
f 413/3/4 408/3/4 414/3/4
f 404/3/4 410/3/4 415/3/4
f 415/3/4 410/3/4 416/3/4
f 406/2/4 413/2/4 417/2/4
f 417/2/4 413/2/4 418/2/4
f 406/2/4 417/2/4 419/2/4
f 419/2/4 417/2/4 420/2/4
f 425/3/5 422/3/5 421/3/5
f 426/3/5 422/3/5 425/3/5
f 427/3/5 424/3/5 423/3/5
f 428/3/5 424/3/5 427/3/5
f 433/3/5 430/3/5 429/3/5
f 434/3/5 430/3/5 433/3/5
f 435/3/5 432/3/5 431/3/5
f 436/3/5 432/3/5 435/3/5
f 441/2/5 438/2/5 437/2/5
f 442/2/5 438/2/5 441/2/5
f 445/2/5 440/2/5 439/2/5
f 445/2/5 444/2/5 443/2/5
f 445/2/5 443/2/5 442/2/5
f 445/2/5 442/2/5 441/2/5
f 445/2/5 441/2/5 440/2/5
f 446/2/5 444/2/5 445/2/5
f 447/2/5 444/2/5 446/2/5
f 448/2/5 444/2/5 447/2/5
f 449/2/5 444/2/5 448/2/5
f 450/2/5 444/2/5 449/2/5
f 451/2/5 448/2/5 447/2/5
f 452/2/5 448/2/5 451/2/5
f 457/2/5 454/2/5 453/2/5
f 458/2/5 454/2/5 457/2/5
f 459/2/5 456/2/5 455/2/5
f 460/2/5 456/2/5 459/2/5
f 465/2/5 462/2/5 461/2/5
f 466/2/5 462/2/5 465/2/5
f 467/2/5 464/2/5 463/2/5
f 468/2/5 464/2/5 467/2/5
f 471/3/5 470/3/5 469/3/5
f 472/3/5 470/3/5 471/3/5
f 475/2/5 474/2/5 473/2/5
f 476/2/5 474/2/5 475/2/5
f 479/2/5 478/2/5 477/2/5
f 480/2/5 478/2/5 479/2/5
f 481/2/5 478/2/5 480/2/5
f 483/2/5 481/2/5 480/2/5
f 483/3/5 482/3/5 481/3/5
f 484/3/5 482/3/5 483/3/5
f 486/2/5 483/2/5 480/2/5
f 487/2/5 486/2/5 485/2/5
f 488/2/5 483/2/5 486/2/5
f 488/2/5 486/2/5 487/2/5
f 491/2/5 490/2/5 489/2/5
f 492/2/5 490/2/5 491/2/5
f 497/3/5 494/3/5 493/3/5
f 498/3/5 494/3/5 497/3/5
f 499/3/5 496/3/5 495/3/5
f 500/3/5 496/3/5 499/3/5
f 505/3/5 502/3/5 501/3/5
f 506/3/5 502/3/5 505/3/5
f 507/2/5 504/2/5 503/2/5
f 508/2/5 504/2/5 507/2/5
f 511/3/5 510/3/5 509/3/5
f 512/3/5 510/3/5 511/3/5
f 515/3/5 514/3/5 513/3/5
f 516/3/5 514/3/5 515/3/5
f 517/3/6 518/3/6 521/3/6
f 521/3/6 518/3/6 522/3/6
f 519/3/6 520/3/6 523/3/6
f 523/3/6 520/3/6 524/3/6
f 525/3/6 526/3/6 529/3/6
f 529/3/6 526/3/6 530/3/6
f 527/3/6 528/3/6 531/3/6
f 531/3/6 528/3/6 532/3/6
f 533/2/6 534/2/6 535/2/6
f 535/2/6 534/2/6 536/2/6
f 537/2/6 538/2/6 539/2/6
f 539/2/6 538/2/6 540/2/6
f 541/2/6 542/2/6 544/2/6
f 544/2/6 542/2/6 545/2/6
f 543/2/6 544/2/6 546/2/6
f 546/2/6 544/2/6 547/2/6
f 548/2/6 549/2/6 550/2/6
f 550/2/6 549/2/6 551/2/6
f 551/2/6 552/2/6 553/2/6
f 553/2/6 552/2/6 554/2/6
f 555/2/6 556/2/6 558/2/6
f 558/2/6 556/2/6 559/2/6
f 559/2/6 556/2/6 560/2/6
f 557/2/6 558/2/6 562/2/6
f 558/2/6 559/2/6 562/2/6
f 561/3/6 562/3/6 563/3/6
f 562/2/6 559/2/6 564/2/6
f 563/3/6 562/3/6 564/3/6
f 564/2/6 559/2/6 565/2/6
f 565/2/6 559/2/6 566/2/6
f 566/2/6 559/2/6 567/2/6
f 567/2/6 568/2/6 569/2/6
f 566/2/6 567/2/6 569/2/6
f 569/2/6 568/2/6 570/2/6
f 571/3/6 572/3/6 575/3/6
f 573/3/6 574/3/6 576/3/6
f 576/3/6 574/3/6 577/3/6
f 575/3/6 572/3/6 578/3/6
f 578/3/6 572/3/6 579/3/6
f 579/3/6 572/3/6 580/3/6
f 581/2/6 582/2/6 583/2/6
f 583/2/6 582/2/6 584/2/6
f 585/3/6 586/3/6 587/3/6
f 587/3/6 586/3/6 588/3/6
f 589/2/6 590/2/6 591/2/6
f 591/2/6 590/2/6 592/2/6
f 593/2/6 594/2/6 596/2/6
f 596/2/6 594/2/6 597/2/6
f 599/3/6 600/3/6 601/3/6
f 601/3/6 600/3/6 602/3/6
f 595/2/6 596/2/6 603/2/6
f 596/2/6 597/2/6 603/2/6
f 597/2/6 598/2/6 603/2/6
f 603/2/6 598/2/6 604/2/6
f 604/2/6 598/2/6 605/2/6
f 605/2/6 598/2/6 606/2/6
f 604/2/6 605/2/6 607/2/6
f 607/2/6 605/2/6 608/2/6
f 609/3/6 610/3/6 611/3/6
f 611/3/6 610/3/6 612/3/6
f 613/3/6 614/3/6 615/3/6
f 615/3/6 614/3/6 616/3/6
f 617/3/6 618/3/6 619/3/6
f 619/3/6 618/3/6 620/3/6
f 621/3/6 622/3/6 623/3/6
f 623/3/6 622/3/6 624/3/6
